<svg xmlns="http://www.w3.org/2000/svg" width="270" height="165.001" viewBox="0 0 270 165.001">
  <defs>
    <style>
      .cls-1 {
        fill: #f15e3e;
      }

      .cls-2, .cls-3 {
        fill: #fff;
      }

      .cls-3 {
        font-size: 28px;
        font-family: SourceHanSansCN-Regular, Source Han Sans CN;
      }

      .cls-4 {
        fill: #fffa00;
        font-size: 52px;
        font-family: Arial-BoldMT, Arial;
        font-weight: 700;
      }
    </style>
  </defs>
  <g id="组_51" data-name="组 51" transform="translate(-417 -529)">
    <g id="组_35" data-name="组 35" transform="translate(-84 294)">
      <path id="减去_2" data-name="减去 2" class="cls-1" d="M-5818.928,165h-10.143a7.113,7.113,0,0,0,.071-1,7.008,7.008,0,0,0-7-7,7.008,7.008,0,0,0-7,7,7.052,7.052,0,0,0,.071,1h-10.141a7.124,7.124,0,0,0,.071-1,7.008,7.008,0,0,0-7-7,7.008,7.008,0,0,0-7,7,7.048,7.048,0,0,0,.071,1h-10.143a7.19,7.19,0,0,0,.071-1,7.008,7.008,0,0,0-7-7,7.008,7.008,0,0,0-7,7,7.048,7.048,0,0,0,.071,1h-10.143a7.113,7.113,0,0,0,.071-1,7.008,7.008,0,0,0-7-7,7.008,7.008,0,0,0-7,7,7.052,7.052,0,0,0,.071,1h-10.141a7.124,7.124,0,0,0,.071-1,7.008,7.008,0,0,0-7-7,7.008,7.008,0,0,0-7,7,7.043,7.043,0,0,0,.071,1h-10.143a7.19,7.19,0,0,0,.071-1,7.008,7.008,0,0,0-7-7,7.008,7.008,0,0,0-7,7,7.048,7.048,0,0,0,.071,1h-10.143a7.113,7.113,0,0,0,.071-1,7.008,7.008,0,0,0-7-7,7.008,7.008,0,0,0-7,7,7.052,7.052,0,0,0,.071,1h-10.141a7.124,7.124,0,0,0,.071-1,7.008,7.008,0,0,0-7-7,7.008,7.008,0,0,0-7,7,7.052,7.052,0,0,0,.071,1h-10.143a7.19,7.19,0,0,0,.071-1,7.008,7.008,0,0,0-7-7,7.008,7.008,0,0,0-7,7,7.048,7.048,0,0,0,.071,1h-10.143a7.113,7.113,0,0,0,.071-1,7.008,7.008,0,0,0-7-7,7.008,7.008,0,0,0-7,7,7.052,7.052,0,0,0,.071,1H-6067V0h270V165h-8.071a7.069,7.069,0,0,0,.071-1,7.008,7.008,0,0,0-7-7,7.008,7.008,0,0,0-7,7,7.048,7.048,0,0,0,.071,1Z" transform="translate(6568 235)"/>
      <g id="手机充值" transform="translate(340.903 239.466)">
        <path id="路径_112" data-name="路径 112" class="cls-2" d="M245.986,105.523a10.464,10.464,0,0,1-.961,4.467,11.829,11.829,0,0,1-2.642,3.65,12.513,12.513,0,0,1-3.938,2.5,12.826,12.826,0,0,1-4.851.913h-34.1a12.827,12.827,0,0,1-4.851-.913,12.519,12.519,0,0,1-3.939-2.5,11.842,11.842,0,0,1-2.642-3.65,10.464,10.464,0,0,1-.96-4.467V41.158a10.784,10.784,0,0,1,.96-4.515,11.675,11.675,0,0,1,2.642-3.7,12.514,12.514,0,0,1,3.939-2.5,12.82,12.82,0,0,1,4.851-.913h34.1a12.819,12.819,0,0,1,4.851.913,12.506,12.506,0,0,1,3.939,2.5,11.662,11.662,0,0,1,2.642,3.7,10.784,10.784,0,0,1,.961,4.515v64.365M238.205,45.77H194.782v55.046h43.423V45.77m-21.712,57.736a4.878,4.878,0,0,0-3.507,1.441,4.993,4.993,0,1,0,7.061,7.061,4.972,4.972,0,0,0-3.555-8.5m7.685-65.9a1.56,1.56,0,0,0-1.537-1.633h-12.2a1.622,1.622,0,0,0-1.009.432,1.465,1.465,0,0,0-.528,1.2,1.56,1.56,0,0,0,1.537,1.633h12.2a1.56,1.56,0,0,0,1.536-1.633M224.179,37.6Z"/>
        <path id="路径_113" data-name="路径 113" class="cls-2" d="M384.205,350h-5.463l-6.142,8.268a41.3,41.3,0,0,0-3.006,4.468h-.1q-1.621-2.692-9.148-12.735h-5.777l10.743,13.48H356.5v2.979h10.325v4.105H356.5v3.017h10.325v5.976h5.123v-5.976H381.9v-3.017h-9.959v-4.105H381.9v-2.979h-8.547Z" transform="translate(-152.278 -291.403)"/>
      </g>
    </g>
    <text id="话费兑换" class="cls-3" transform="translate(524 588)"><tspan x="0" y="0">话费兑换</tspan></text>
    <text id="元" class="cls-3" transform="translate(588 645)"><tspan x="0" y="0">元</tspan></text>
    <text id="_50" data-name="50" class="cls-4" transform="translate(524 647)"><tspan x="0" y="0">50</tspan></text>
  </g>
</svg>
