<svg xmlns="http://www.w3.org/2000/svg" width="82.763" height="70.932" viewBox="0 0 82.763 70.932">
  <defs>
    <style>
      .cls-1 {
        fill: #fff;
      }
    </style>
  </defs>
  <g id="组_37" data-name="组 37" transform="translate(-151.825 -374.512)">
    <path id="服务" class="cls-1" d="M118.106,148.791c-2.087,1.579-9.2,7.2-10.76,8.368a35.007,35.007,0,0,1-9.144,5.376c-3.408,1.21-8.017-.028-12.3-2.623l-.342-3.113q20.075-19.119,23.553-22.5a22.5,22.5,0,0,1,15.748-6.3c12.1,0,21.955,9.283,21.955,20.791a19.948,19.948,0,0,1-4.23,12.266,30.329,30.329,0,0,1-2.882,2.752l-2.669-.037-15.739-14.815a2.475,2.475,0,0,0-3.187-.166ZM96.881,158.822a31.974,31.974,0,0,0,8.1-4.821c1.506-1.127,8.608-6.743,10.742-8.359a6.431,6.431,0,0,1,8.267.434L138.4,159.644c.619-.573.988-.933,1.053-1.007a16.028,16.028,0,0,0,3.408-9.855c0-9.283-8.036-16.847-18.011-16.847a18.558,18.558,0,0,0-13,5.182q-3.311,3.228-21.595,20.643c2.6,1.173,5.071,1.616,6.622,1.062Zm15.286,35.043c1.191-1.173,1.238-3.51.092-5.154l2.706-2.762c1.709,1.136,4.166,1.1,5.385-.092,1.191-1.173,1.238-3.51.092-5.154l2.706-2.762c1.709,1.136,4.166,1.1,5.385-.092,1.736-1.7,2.041-4.046.767-5.311l2.752-2.817c1.422,1.367,3.538,1.228,5.191-.388a3.7,3.7,0,0,0,0-5.339L140,161.177a7.646,7.646,0,0,1,0,10.973,8.2,8.2,0,0,1-5.967,2.448,8.8,8.8,0,0,1-2.743,6.068,7.68,7.68,0,0,1-6.087,2.014,7.438,7.438,0,0,1-2.087,5.994,7.72,7.72,0,0,1-6.105,2.014,7.438,7.438,0,0,1-2.087,5.994,7.977,7.977,0,0,1-9.541,1.182l-.4-.3c-2.244-2.208-3.482-3.427-3.676-3.621L70.437,164.022a20.537,20.537,0,0,1,0-29.769,22.245,22.245,0,0,1,30.656-.018l4.784,4.5.674.674-2.789,2.78c.009.009-.517-.526-.582-.582l-4.8-4.517a18.324,18.324,0,0,0-25.206,0,16.6,16.6,0,0,0,0,24.1l30.877,29.926c.2.2,1.367,1.339,3.51,3.454a4.032,4.032,0,0,0,4.609-.7Z" transform="translate(87.775 246.512)"/>
  </g>
</svg>
