<svg xmlns="http://www.w3.org/2000/svg" width="758.312" height="344.444" viewBox="0 0 758.312 344.444">
  <defs>
    <style>
      .cls-1 {
        fill: #f5bf0f;
      }
    </style>
  </defs>
  <g id="组_3" data-name="组 3" transform="translate(-14 -835.774)">
    <g id="组_2" data-name="组 2" transform="translate(14 835.774)">
      <g id="组_1" data-name="组 1">
        <path id="路径_1" data-name="路径 1" class="cls-1" d="M262.577,360.193l2.639-2.01h9.556l4.4,1.631,2.515,2.518,3.771.629,1.006,2.137v1.256h-6.287l-2.765-.377h-1.005v-1.508s-3.144-3.521-4.9-3.521H271l-3.395-.124h-1.509l-.941.941h-2.577S261.265,361.194,262.577,360.193Z" transform="translate(-145.969 -215.844)"/>
        <path id="路径_2" data-name="路径 2" class="cls-1" d="M283.4,352.176h-2.516l-.439-2.83,1.32-1.323-.5-1.2v-1.568l4.4-.379.567,2.579-1.7.44-.694,1.258Z" transform="translate(-149.508 -213.293)"/>
        <path id="路径_3" data-name="路径 3" class="cls-1" d="M289.224,352.349h1.885v2.264h-1.946Z" transform="translate(-151.179 -214.726)"/>
        <rect id="矩形_1" data-name="矩形 1" class="cls-1" width="2.513" height="1.383" transform="translate(138.109 141.144)"/>
        <path id="路径_4" data-name="路径 4" class="cls-1" d="M291.339,360.593l2.766.063v1.888l-2.828-.377-.6-.6Z" transform="translate(-151.47 -216.307)"/>
        <rect id="矩形_2" data-name="矩形 2" class="cls-1" width="5.532" height="2.576" transform="translate(128.929 153.406)"/>
        <path id="路径_5" data-name="路径 5" class="cls-1" d="M289.706,371.775h3.96l.566-2.453,6.979-.251,3.018,1.508-.187,1.511-3.9,1.069-2.079.317-1.882.377-1.008-.506h-5.469Z" transform="translate(-151.283 -217.932)"/>
        <path id="路径_6" data-name="路径 6" class="cls-1" d="M310.422,372.079l3.606.085v1.593h1.846v1.426h-1.93l-3.268-.921Z" transform="translate(-155.256 -218.509)"/>
        <path id="路径_7" data-name="路径 7" class="cls-1" d="M352.48,434.383l2.514-2.766a3.246,3.246,0,0,1,1.511,2.64L355.06,435.7A5.346,5.346,0,0,1,352.48,434.383Z" transform="translate(-163.322 -229.927)"/>
        <path id="路径_8" data-name="路径 8" class="cls-1" d="M359.016,436.924s2.137-2.767,3.393,0C362.409,436.924,361.552,439.459,359.016,436.924Z" transform="translate(-164.575 -230.709)"/>
        <path id="路径_9" data-name="路径 9" class="cls-1" d="M139.38,247.666a11.28,11.28,0,0,1,1.382.422v.879l-.921.294-.314.313-.42-.415Z" transform="translate(-122.402 -194.65)"/>
        <path id="路径_10" data-name="路径 10" class="cls-1" d="M141.8,247.4l.9-.565.713.379-.292.918v.254l-1.216-.041Z" transform="translate(-122.919 -194.492)"/>
        <path id="路径_11" data-name="路径 11" class="cls-1" d="M183.68,251.511v-2.387h2.138l1.132,2.387Z" transform="translate(-130.95 -194.93)"/>
        <path id="路径_12" data-name="路径 12" class="cls-1" d="M183.68,254.642l.628,2.011h2.515v-2.137l-2.138-.88Z" transform="translate(-130.95 -195.795)"/>
        <path id="路径_13" data-name="路径 13" class="cls-1" d="M327.344,393.13h1.886v-1.194h-1.949l-.377-2.139.691-.689v-1.448l1.133-.251.439-.442v-1.885l1.635-.311.125-1.825-.817-.813-.316-2.076-.44-1.26h-3.645v1.571l1.885.693.691,1.194v1.762l-.786.781-.092,1.227-1.2,1.068v1.388l-.878.877v2.078l.878.877v.817h1.132Z" transform="translate(-158.116 -219.797)"/>
        <rect id="矩形_3" data-name="矩形 3" class="cls-1" width="2.515" height="2.577" transform="translate(174.071 166.669)"/>
        <path id="路径_14" data-name="路径 14" class="cls-1" d="M323.342,378.161h-1.258l-.927-.927-.143-1.4H322.4l.473.466.442-1.663h2.166l-.187,1.857-1.133.12Z" transform="translate(-157.287 -219.001)"/>
        <rect id="矩形_4" data-name="矩形 4" class="cls-1" width="2.421" height="2.451" transform="translate(169.386 155.32)"/>
        <path id="路径_15" data-name="路径 15" class="cls-1" d="M319.505,373.3V371.22h2.171v2.639h-1.038Z" transform="translate(-156.998 -218.345)"/>
        <path id="路径_16" data-name="路径 16" class="cls-1" d="M356.448,278.225v-1.508l6.225-6.038.943-.942H365.5v1.634l-1.006,1.008,1.1,1.1,1.791.283,1.256.378,1.259,2.2-.378,1.756h-2.2Z" transform="translate(-164.083 -198.883)"/>
        <path id="路径_17" data-name="路径 17" class="cls-1" d="M347.963,402.4l-4.612-1.256-3.771-3.773-4.526-1.173H326l-1.007-3.019-2.851-2.013-5.028.672-1.676-3.019h-2.851l1.09-3.773-2.429-2.43-2.013-5.7-4.027-2.181h-6.872l-8.468-8.465L287.605,364v-1.76h-2.433l-.921.923-2.514-.17-9.976-1.087-2.263-2.262h-3.856l-1.675,1.677.333,3.185-1.005,1-1.675-1.677.083-3.1,1.425-1.425v-2.433h-2.6l-3.271,3.273a10.4,10.4,0,0,0-4.023,1.005l-1.344,3.854-2.177,1.173-2.348-1.006h-7.209l-3.52-1.006-2.181-3.858v-7.543l.5-3.352-1.676-1.677-4.611-.42-1.593,1.6-2.349-.5v-1.848l-.669-2.177,2.347-2.346,1.846-4.027.92-3.267-1.595-1.59h-6.034l-1.174,2.847-4.526,4.529a7.847,7.847,0,0,1-5.532,0l-4.026-3.858-.837-3.185v-6.035l1.677-3.019.837-4.863,1.844-3.687,4.359-2.011,5.366-2.853,4.527,2.519h3.518l3.355-3.354h2.682l2.684,1.338,4.359.339,2.682,2.679v7.043c1.342,4.7,3.69,1.844,3.69,1.844l.5-1.844v-5.865l-1.342-4.363L248.206,307l1.845-1.844,3.163-.861,3.208-3.2h2.639l2.516-2.515,1.635-1.634v-5.953l.84-.838,1.758,1.76v-1.678l1.844-3.349h3.355l5.03-4.36,5.7-2.012v-2.683c0-1.343,12.492-5.952,12.492-5.952l1.089,1.09-3.186,2.179v1.509h3.018c0-1.345,4.527-3.186,4.527-3.186,4.693,0,6.372-1.847,6.372-1.847V269.7h-6.121A1.888,1.888,0,0,1,298,267.773l2.682-2.683.839-2.682h-4.36v-1.175a.728.728,0,0,1-1.172,0c-.672-.672,3.184-1.841,3.184-1.841h6.538l3.186-.17h1.51l2.514-1.005h.839l2.181-1.175h3.519l2.516-2.513,1.005-1.009-.841-3.352-4.189-1-2.011-4.361v-2.682l-1.176-2.85v-3.185h-2.514l-6.12,4.276-1.93-1.929v-4.36c-.88-2.978-5.531-3.434-5.531-3.434h-5.953l-2.1,2.1c-2.85,4.36-4.527,5.531-4.527,5.531v4.191c0,1.844-3.016,3.687-3.016,3.687-6.708,1.675-6.372,4.025-6.372,4.025l-1.09,3.77-2.432,2.433h-1.342l-2.345-2.345c1.511-1.508,2.181-7.043,2.181-7.043h-4.526c-1.175-1.175-7.545-3.521-7.545-3.521-3.186-1.511-4.026-5.7-4.026-5.7-1.507-1.51,7.209-6.034,7.209-6.034h1.677v-1.678l3.942-.923,2.261-2.262,3.6-.085.588-.588,3.185-.836v-2.767h1.761c1.76,0,2.012,2.011,2.012,2.011l-1.089,1.09v2.682l2.009-.332,1.009-.673h2.178l1.509,1.341h1.844v-3.521a6.968,6.968,0,0,0-5.616-1.925l2.1-2.1h7.208l4.024-4.027v-2.011l-6.454-.754-3.94,3.94h-1.509v-2.851c-3.017,0-3.521-1.843-3.521-1.843v-3.858h-2.68l-4.318,2.808.88.88v1.928l-2.013,2.011-1.34-1.338.921-.924c-2.43-2.431-5.865,0-5.865,0v2.181h3.184v1.171l-2.179,1.342-2.18-2.181-5.2,1.344-4.692-1.677h-7.04l-2.474,2.469-1.384-1.382H238.4l-1.932-1.927-5.2-2.686-5.867-.332-4.863-1.172-2.85,1.005h-3.686l-7.883,2.179-6.2-.505-5.2-1.338-5.867-1.175h-5.03l-6.037-2.011-6.034.67-4.023,1.007-5.364.167-8.048,3.019-5.868,1.171v1.342l1.509,1.508-3.357,2.01c-1.422-1.427-10.058.5-10.058.5l-.166,2.518c2.178,0,6.117,1.591,6.117,1.591l-2.095,2.1L129,229.88v5.032l-2.854,1.173.674,2.346a25.025,25.025,0,0,1,3.686.672v1.174c0,1.175-12.073,4.694-12.073,4.694v1.507l4.7-.5,10.228-4.361h1v1.845h3.689l.84-.84,2.092-.332V240.36l-1.257-1.257,6.54-3.019h5.867l2.851-1.511,3.353-.836,4.7,1.589h4.444l3.268,3.272,3.772.755,2.346,2.346-1.423,1.424,1.844,3.688-2.517,2.516v8.718h-2.513l-.338,2.35,2.518,2.513h2.511l1.008-2.18h2.18l.168,1.841-1.593,1.262-1.763,1.759h-3.686l-1.508,3.186-2.348,4.022-4.191,4.193-.84,3.019-3.018,3.016-.5,3.521V288.9l2.433,12.154c4.444,2.6,4.78,4.778,4.78,4.778v5.366l2.284,3.791-.736.738v4.65l2.558,2.557V325.7l2.934,2.934h2.515l-1.426-3.437-1.594-1.6v-5.359c0-1.508-2.6-7.043-2.6-7.043v-2.1c0-1.76,1.51-1.508,1.51-1.508l1.928,1.928,1.005,7.213,3.353,4.86V323.6c2.681,1.178,6.7,8.218,6.7,8.218l.253,2.935-1.426,1.427v1.84c0,2.852,17.269,11.153,17.269,11.153h3.771l1.594-1.6h2.681l2.6,2.6,2.6,2.6,3.689,1.531h4.505l1.825,1.823v2.223l2.3,2.306v2.6l1.593,1.592,3.018,3.015,4.027.672,2.847,1.006H242v-2.015c2.1-2.094,4.777,0,4.777,0v4.112l.753.755v7.543a39.6,39.6,0,0,0-8.216,11.4v3.354l2.017,2.012-1.509,1.508s2.767-1.763,0,1,0,4.027,0,4.027v2.347c5.11,1.924,6.705,9.888,6.705,9.888,0,4.2,4.359,6.873,4.359,6.873,1.175,4.86,3.017,6.879,3.017,6.879,9.893,4.194,11.9,8.717,11.9,8.717l1.676,1.673,1.344,3.024.628,5.489-1.552,1.549v3.44l.924.916v12.748l1.144,2.849v4.217l1.484,1.484v6.15l-1.393,1.391v5.472l1.4,1.4v3.732l1.133,1.128v1.258l.921.92,2.681,2.687v2.684l1.007,1.007v3.683l-1.76,1.764,2.516,2.513,1.423,1.424v2.012l2.013,2.011v3.357l2.513,2.515h1.678l.756,2.094,1.089,1.091h3.353v.67h3.355v3.858h3.35v1.67h4.526l.672-.661h4.193l-.839-1.176-3.859-2.185-3.854-1.506-3.437-2.179v-1.6l-1.591-1.59v-2.175l2.345-3.858-.753-4.445-2.6-2.6,2.016-3.355.668-1.676v-2.176l-1.005-2.685c-3.1-3.1,0-2.853,0-2.853a2.229,2.229,0,0,0,3.354,0V492.26c-1.508-1.506.837-3.6.837-3.6h6.456l1.258-1.255v-4.53l-2.349-3.352c0-2.011,1.258-1.757,1.258-1.757l1.593,1.593,6.37-.672,5.87-9.054-.085-4.945,2.934-2.936v-7.038l2.682-2.683L327,450.35l3.019-1,6.2-1.345,2.681-4.361-.5-3.518,1.344-1.34-.419-3.773,1.257-1.255v-9.392l1.089-2.6L343.435,420l1.509-1.512.671-2.006,1.844-1.846,2.012-2.345v-5.87Zm-79.89-127.167s.672-.251,1.049,1.048c0,0-2.641,2.809-3.815.711C265.307,276.99,265.392,275.231,268.073,275.231Zm-10.478,6.119s-1.676,2.013-2.849,0c0,0,.752-2.261,4.442-2.261l.922.923Zm2.43-11.065H261.2l2.223,2.219-1.258,1.262-2.388.544-1.594,2.513h-1.426l-1.423-1.422,1.132-1.132v-1.636h-2.977l-2.008.5-1.679,1.511-1.424,2.433-.42,1.511s-1.423,2.934-2.514,2.934c0,0-2.977-.8-1.885-1.891,0,0,3.06-7.247,7.417-8.338a11.866,11.866,0,0,1,5.535-1.09Zm-17.433-2.01s4.777-5.032,10.728-4.027a3.538,3.538,0,0,1,2.516,4.027l-.714.711-4.4-.045-1.13-1.13h-3.565l-2.43,1.637S242.171,269.532,242.592,268.275Z" transform="translate(-118.439 -187.381)"/>
        <path id="路径_18" data-name="路径 18" class="cls-1" d="M272.1,216.036l-1.215-1.216-2.641.041-3.6-2.433,6.54-.162a1.213,1.213,0,0,0,0-1.929H265.9v-.756l2.264-.921L264.4,207.4l-3.858,2.682h-3.6l-.757-2.262,1.342-1.344,7.63-3.773h6.37l4.19,1.172,2.265,2.268,2.346.082,2.348-.924h1.844l.838,1.76,1.719-1.72h3.73l-.168,2.479-1.381,1.38,2.472,1.97-.165,1.678-3.272,1.341-3.855.5-3.02-.5-2.262-.335-1.508.584-2.431.339h-1.426Z" transform="translate(-144.853 -186.028)"/>
        <path id="路径_19" data-name="路径 19" class="cls-1" d="M305.134,206.094h3.938l2.348-1.847,1.508.169s.252-.669.671-.669l2.433,0-.588,2.01-1.593,1.848-2.263,1.172-3.269.336Z" transform="translate(-154.242 -186.227)"/>
        <path id="路径_20" data-name="路径 20" class="cls-1" d="M320.431,207.083v-1.762l3.018-1.008h4.527v1.765h-4.148l-1.319,1.316Z" transform="translate(-157.175 -186.336)"/>
        <path id="路径_21" data-name="路径 21" class="cls-1" d="M354.62,230.243h-4.9l-6.537-5.784h-1.637l-2.386.882H336.89l-1.255-1.261.814-.815,5.094-.568h2.265l2.576-2.576h4.464l1.888.565,1.005-1.005-2.261-2.261-1.954-1.951-3.268-3.27h-1.445a1.171,1.171,0,0,0-1.633,0h-3.524l-1.161-1.161h-2.86l-1.245,1.24H330.35s-3.646-1.524-1.38-3.787l4.4-2.893h1.888l.5-.5h11.318l3.77,2.89,3.395-.754L357.011,210l3.77,1.633,1.007,3.393,3.519,3.525v3.016s-1.319,1.323-1.7,1.7-2.075.377-2.075.377l-2.483-2.486s-3.552.409-1.982,1.983,1.005,2.137,1.005,2.137v3.082h-3.835Z" transform="translate(-158.671 -186.487)"/>
        <path id="路径_22" data-name="路径 22" class="cls-1" d="M334.434,200.738v-2.513h1.509l4.15-.755,1.257,1.256,11.191.629,1.257,1.257-1.32,1.322H349.9l-2.64.06h-6.413l-2.765-.628Z" transform="translate(-159.861 -185.024)"/>
        <path id="路径_23" data-name="路径 23" class="cls-1" d="M341.749,190.529v-2.388l5.278-.627h4.027v2.767h-1.762l-4.649,1Z" transform="translate(-161.264 -183.115)"/>
        <path id="路径_24" data-name="路径 24" class="cls-1" d="M346.621,193.039l6.537-.63-.756-1.76,3.143-.126,1.133-2.893h3.773l3.269,1.008h3.772V186.75l-3.018-.629h-2.767l-4.149-1.005,4.778-1.133h9.432l2.135-1h5.282s2.514.248,3.395.248,4.905-.248,4.905-.248l4.651-.757v1.76l-4.4,1.385-4.151,1.759-4.905.88-4.9.879-3.645,1.382-3.4,2.016-3.4,1.506-3.4,1.887h-2.764l-2.389-1.257-7.294.126S345.236,194.421,346.621,193.039Z" transform="translate(-162.112 -182.1)"/>
        <path id="路径_25" data-name="路径 25" class="cls-1" d="M381.236,194.706l-.441-3.458,7.045-1.009,4.023-.879,5.784-2.388,4.277-1.633h2.89l2.262-.754,4.277.377,4.148.629h5.66l3.521-.88,4.273-.251,4.152-.63,4.276-.752,4.021.252h3.02l3.268-1.257,5.283.752,4.778.377,4.275,1.134,3.018,1.759,3.269-.879,3.018.252-1.131,2.39h-5.533l-2.518,1.254-2.011,2.014v3.521l-3.521,3.52-.942.945-3.584.939-3.017.754-1.131,1.137.817.817,2.7,1.444.627,1.885-2.389,1.132-1.635,1.637.5,1.511h-2.513l-4.655.751a16.352,16.352,0,0,1-2.639.629H434.49L430.967,213l-4.275,2.011-1.635,1.256-2.891.879-2.39.629-2.516.5-2.137,1.134-2.263,2.265L410.1,223.69a7.312,7.312,0,0,1-.756,2.137c-.377.377-1.132,2.135-1.762,2.135s-3.142,1.634-3.142,1.634h-3.646l-3.9-1.506-2.64-3.521v-2.89l-.252-3.4v-3.519l4.9-3.648,2.767-1.511v-3.77l-2.389-1.382-1.005-3.4-2.64-3.77s-.5-.507-1.574-1.574a3.393,3.393,0,0,0-2.2-1.068h-8.427Z" transform="translate(-168.752 -182.071)"/>
        <path id="路径_26" data-name="路径 26" class="cls-1" d="M460.17,212.843l-1.2-1.19,1.823-2.2,1.384,1.131v2.262Z" transform="translate(-183.744 -187.322)"/>
        <path id="路径_27" data-name="路径 27" class="cls-1" d="M462.008,230.134l1.257-3.272,4.905-1.509,5.03-.5h2.514l2.641.754s2.012,1.884,0,2.767l-2.765,1.256-2.515.631h-2.012l-2.261,1.257h-1.512l-2.514-1-.629-.629Z" transform="translate(-184.326 -190.275)"/>
        <path id="路径_28" data-name="路径 28" class="cls-1" d="M436.347,377.929H433.33v-2.011h3.687Z" transform="translate(-178.826 -219.245)"/>
        <path id="路径_29" data-name="路径 29" class="cls-1" d="M438.2,380.159v-1.131h1.508v1.258Z" transform="translate(-179.761 -219.842)"/>
        <path id="路径_30" data-name="路径 30" class="cls-1" d="M441.938,380.159v-1.131h1.509v1.258Z" transform="translate(-180.477 -219.842)"/>
        <path id="路径_31" data-name="路径 31" class="cls-1" d="M438.673,384.969V383.21h1.381v-.757h2.642v2.516Z" transform="translate(-179.851 -220.499)"/>
        <path id="路径_32" data-name="路径 32" class="cls-1" d="M634.4,505.8l-2.346-2.349v-8.38l3.851-3.858v-2.685a4.667,4.667,0,0,1-1.84-3.352,16.657,16.657,0,0,1,.672-4.192l3.017-.335,3.856-2.348,2.426-2.431,2.017-2.011.753-2.932s.92.921,1.6,1.594.664,3.77.664,3.77l.421,3.521-1.335,3.013-2.185,7.213-3.185,5.869-.841,5.872v2.179l-3.521,1.337Z" transform="translate(-216.937 -237.465)"/>
        <path id="路径_33" data-name="路径 33" class="cls-1" d="M636.086,473.992l-2.684-.173h-1.338v-1.508h-.838V470.3H633.4v1l3.02.172Z" transform="translate(-216.777 -237.345)"/>
        <path id="路径_34" data-name="路径 34" class="cls-1" d="M670.429,448.106l2.35.165v1.846l-2.35.667Z" transform="translate(-224.295 -233.089)"/>
        <path id="路径_35" data-name="路径 35" class="cls-1" d="M671.675,497.379l.169-2.182h2.847v2.182Z" transform="translate(-224.534 -242.12)"/>
        <path id="路径_36" data-name="路径 36" class="cls-1" d="M718.811,418.671,717.136,417s-1.675-1.677,0-1.677a3.842,3.842,0,0,0,2.6-.927l.753.085v4.192Z" transform="translate(-233.11 -226.624)"/>
        <path id="路径_37" data-name="路径 37" class="cls-1" d="M741.37,409.68v-4.027l1.178-3.182a6.64,6.64,0,0,1,3.184,1.171l.921.923v5.282l-1.888,1.888S741.37,412.193,741.37,409.68Z" transform="translate(-237.9 -224.338)"/>
        <path id="路径_38" data-name="路径 38" class="cls-1" d="M526.261,430.879V428.7l2.683-.5v2.685Z" transform="translate(-196.648 -229.271)"/>
        <path id="路径_39" data-name="路径 39" class="cls-1" d="M528.547,424.459h2.344V426.8h-1.676Z" transform="translate(-197.086 -228.554)"/>
        <path id="路径_40" data-name="路径 40" class="cls-1" d="M533.036,305.728l-1.177-1.508V301.2l2.182-.168v3.689Z" transform="translate(-197.722 -204.885)"/>
        <path id="路径_41" data-name="路径 41" class="cls-1" d="M532,297.79s-.671-1.846,0-2.518a4.6,4.6,0,0,1,2.513-.668v2.514S534.848,298.457,532,297.79Z" transform="translate(-197.691 -203.652)"/>
        <path id="路径_42" data-name="路径 42" class="cls-1" d="M572.982,318.546c1.174,0,5.533-.5,5.533-.5l2.349,1.841-.837.84H575.16l-2.848-1.339Z" transform="translate(-205.479 -208.147)"/>
        <path id="路径_43" data-name="路径 43" class="cls-1" d="M546.175,318.122v-1.633h2.137v2.136Z" transform="translate(-200.467 -207.849)"/>
        <path id="路径_44" data-name="路径 44" class="cls-1" d="M512.571,307.717V306.46H514.2V304.2h3.019v2.513h-2.138v1.382Z" transform="translate(-194.023 -205.492)"/>
        <rect id="矩形_5" data-name="矩形 5" class="cls-1" width="1.886" height="1.636" transform="translate(324.584 97.824)"/>
        <path id="路径_45" data-name="路径 45" class="cls-1" d="M497.514,267.058l3.941-2.348-1.761-1.174-.88-.881.462-2.221,2.43-.839v-1.761l.419-1.675-1.675-.339-1.3-1.295-.546-2.476v-2.343l1.005-1.263,1.76.088,1.508.67,1.258,1.171-.083,1.6-1.425.924,2.431,1,1.09,1.087.5,2.181,1.089,1.677,1.762,1.427,1.926.584.42,1.175v.924l-1.088.585s-.757.42-.757.752-.837,1.175-.837,1.175H507.49l-1.509.5-2.263.672-1.425.334h-1.759l-1.93.584S497.1,268.481,497.514,267.058Z" transform="translate(-191.121 -194.799)"/>
        <path id="路径_46" data-name="路径 46" class="cls-1" d="M485.6,265.7c.045-.67.418-3.186.418-3.186l.418-.669v-2.1l.421-.42,1.886-1.886.8-.8,2.849.167,2.265.251v2.181l-.335,1.928-.756.754v2.852l-3.268-.087-.922.924-2.014.672S485.569,266.211,485.6,265.7Z" transform="translate(-188.851 -196.371)"/>
        <path id="路径_47" data-name="路径 47" class="cls-1" d="M543.645,253.24l-4.109-.252v-2.177l3.522-1.845h4.023l3.606-3.6-.753-2.265,3.687-3.858-2.178-2.177-1.006-2.513,3.016-3.022s3.354-1.509,3.354-2.346,2.682-4.7,2.682-4.7A9.036,9.036,0,0,1,561,225.663a3.588,3.588,0,0,1,.672,2.514c0,.67-2.852,2.683-2.852,2.683v2.181l.838,4.023,1.676,1.675s3.69-.336,4.528-.336,2.345.5,2.848,0,3.018,0,3.018,0l1.093,1.094-1.932,1.256-2.847.67h-8.551v1.341s2.43-.584,3.017,0l2.181,2.181-1.176,1.005-2.681-1.175h-1.678s-1.673,2.013-.836,2.852-.17,1.677-.17,1.677l-.335,1.172-2.011,1.512h-4.025a17.483,17.483,0,0,0-3.688.835s-.167,1.006-1.008,1.006A27.859,27.859,0,0,1,543.645,253.24Z" transform="translate(-199.194 -190.205)"/>
        <path id="路径_48" data-name="路径 48" class="cls-1" d="M828.815,219.428l1.593,1.592h3.014c2.1,2.1,9.727,1.511,9.727,1.511l-1.672-3.185L837.115,218l-5.028-.5-4.193-1.678-5.7-1.338-5.2-.84-7.04-1.511-7.885-1.175H791.679l-7.545.17a57.566,57.566,0,0,0-5.863-.332c-3.02,0-3.355-1.681-3.355-1.681l-3.858.838-3.352-1.507h-8.381l-3.02-1.005-5.368-2.35-10.057-.836-3.353,1.175-1.343,2.85-2.348.167-2.513-.837s-2.848-.169-3.688-.169a10.564,10.564,0,0,0-2.849,1.005l-10.232-4.528-5.7.169H700.98s-3.358-.169-4.022-.837-3.864,0-3.864,0l-3.012-.5h-3.021L682.956,204c-2.771,0-1.931-1.926-1.931-1.926l3.859-1.68v-2.344l-5.2-.841h-6.539l-4.023-2.178s-4.02.505-5.026.505-4.526,2.678-4.526,2.678l-4.191-.335-3.691.836h-5.7l-1.342,4.2-5.869.5-4.528,2.517-5.953.668v1.929l-.917.921-2.517-4.191-3.521-.164-3.435.837v4.273c6.118,3.606,3.435,3.438,3.435,3.438l-3.016-.671-2.683-.84H609.1l-2.346.84h-4.528l-3.185.838h-2.347l-5.868.333-4.946,3.1-2.261-2.261h-3.191l.759,2.431-1.926,1.928-3.606-.169v1.259l-2.094,2.095-1.515-1.511H569.87l1.175,3.02h-2.687l-2.346-2.349-2.175-2.181-2.35-1.172v-1.674l3.858,1.171H574.4l1.256-1.259-1.592-1.59-6.542-2.853-6.37-.332-6.037-3.016s-6.869-.339-8.047-.339H541.7l-8.467,4.275-3.6,3.606-5.2,5.2-7.211,5.363H513.37l-1.215,3.523v4.235l2.054,2.053h4.945l1.6-1.6,1.758,1.76,2.6,2.6v2.01l-2.179,1.175-1.174-1.175-1.194-2.871-2.37,2.368V247.3l-1.3,1.3h-4.108l-2.767,2.765-3.352,3.773h-2.936l-3.6,3.606h-1.51l-2.849,2.178h-4.191s-2.85,2.851,0,2.851,4.7,3.186,4.7,3.186l.417,5.448-2.431,2.432h-2.849l-3.521-1.175-4.023-.334h-4.026v7.71l-1.508,3.022v5.027h2.181l.921.923,1.76,1.763,2.851-.507H489.4l3.353-1.005,3.017-.668,1.675-1.68v-2.344l2.348-2.349,1.341-2.681,3.144-1.718,1.132-1.131v-1.928l2.263-2.265h7.544l3.774-1.423,4.442,4.442a6.867,6.867,0,0,0,5.869,3.519c3.521,2.011,3.854,3.858,3.854,3.858v3.02l-1.006,1-1.846-.334h-2.848v1.342l3.018,2.178h2.765V289.34L534.581,288l.918-.923,1.008-2.682v-1.679h2.178v-1.843l-4.022-2.178-4.276-2.768s-1.172-1.173-3.438-3.439,0-3.688,0-3.688l2.683,2.686h1.343l3.35,4.023h3.354c3.354,0,3.857,3.859,3.857,3.859l-.083,5.108,1.09,1.094,3.773-.088.921.926-2.1,2.1,2.013,2.011,1.343,1.341,2.263-2.261-.252-4.446-1.593-1.589,1.174-1.514h2.18l1.507-1.506h2.014l1.5,1.508-.667.669v.842l.251,1.423,2.261,2.261v2.35l1.174,1.506-.92.923,1.258,1.256,1.338-1.338,4.195.84,1.845-1.844,1.673,1.677,2.685.333v1.005l-.835,3.016c2.513,1.174,3.434-1.927,3.434-1.927a3.244,3.244,0,0,1-.921-1.928c0-1.005,4.693-1.338,4.693-1.338l.334,2.679-.838,3.688v2.683c0,2.18-3.017,5.366-3.017,5.366h-2.849l-3.691-.5h-4.523l-4.359-.672-4.529-1.339-5.029-1.846h-6.119v3.1l-2.265,2.266-3.014-1.342H535l-1.843-3.686-3.522-.672h-3.689l-2.681-2.514-.838-3.188v-6.286h-3.1l-2.264,2.265h-4.692l-3.69-.337-7.713.67-4.023,1.844-5.2,1.844-3.186-1H485.2l-3.1,2.092-6.288,6.29v3.688l-1.928,2.261-3.267,3.271-3.689,2.68-3.858,6.371-5.027,8.047-.171,3.353,1.845,3.355.169,5.029-2.6,4.528v3.6l.755.755-.253,4.108,1.927,1.929,2.853,3.519,2.849,2.851.67,3.521,6.034,6.034,3.187,1.34,4.359.672h3.353l4.022-.672h4.362l4.863-1.34,5.362-2.009h3.356c3.856,0,4.777,2.764,4.777,2.764l1.927,1.929,3.019-1,3.941,1.758-1.174,1.173-1.091,1.094h2.685l1.169,1.507.337,3.186-2.1,4.527v4.946l2.6,2.6,2.681,2.679,1.343,3.521.837,3.524,1.846,2.681,1.507,4.195v4.865l-2.012,4.692-1.507,5.7v9.051l3.017,3.02,2.012,5.868,1.341,6.371.5,9.052,5.363,5.364,1.678,4.025v4.524l2.346,2.688,2.431.584,1.592-1.6,3.521-1h7.879l3.521-1.512,3.434-1.423s5.115-5.119,5.115-5.787v-2.347l2.767-2.432,1.091-1.088.5-2.515-.167-3.019,2.008-2.007,3.86-1.511,1.425-3.861v-3.769l-1.93-1.929v-2.011l1.845-1.844,1.676-3.185,2.347-1.678,2.683-.836,4.864-2.683,1.17-3.693v-3.684s-.336-3.856-.336-5.03V412.82l-2.179-1.844-1-7.541v-4.361l2.181-4.026,2.344-2.347,1.087-2.432,3.437-3.437,3.518-2.849,2.35-2.85,3.858-2.014,1.511-1.509,1-3.852,2.853-2.851,1.5-4.7,2.515-2.513v-1.345l-.839-5.53-.921-1.09-1.426,1.423-3.687,1.005-4.694.837-3.017.842-2.011-2.351-2.518-2.513-1.426-3.267-2.1-2.1-2.851-2.01L591,344.918l-.837-3.353-2.688-3.354-2.011-2.011-1.341-4.862-.837-3.019-2.514-3.52-1.85-3.185-1-3.355-2.856-2.18.927-.918,1.087-1.092-.838-2.514h2.679v2.852L581.1,318.6l2.1,4.273,2.432,2.432,2.347,3.352,1.758,4.946,1.593,1.591,2.513,1.848,1.261,4.442,2.932,2.934,1.679,3.525.839,2.344v2.347l2.346.335,4.025-.169,4.859-2.347,6.539-2.51,1.68-1.684,1.675-2.177,1.841-1.845,3.859-1.174h1.843l-.251-2.092,4.277-4.278,1.421-1.423,1.09-1.091,1.511-2.01-.672-2.852-2.182-.672-1.671-1.673-2.6-2.431-1.431-1.428c0-2.68-2.006-2.011-2.006-2.011l-1.848,1.844-2.846,2.347-1.676,1.68-1.174-1.174s-1.341-1.343-2.016-2.01,0-1.848,0-1.848L614.8,319.6h-1.676l-.165-2.013-.587-3.27-2.015-2.011-1.841-1.844.584-.587.84-1.6h1.932l2.768,2.771v1.507l2.674,1.677L619,315.913l2.681,1.009,2.682.672c2.681.67.84,0,.84,0l1.171-1.174h2.1v1.422l1.591,1.594,2.349,1.174,3.193.5h7.539a18.537,18.537,0,0,0,3.521.42h2.1l1.589-1.6,1.845,1.848,2.768,2.594,2.093,2.1,1.511-.166,1.84,1.174-.84.667-1.5,1.511,2.849,2.515,2.347.17h2.014l.836-2.685c2.518,0,1.845,1.844,1.845,1.844l-1.006,4.361,1.342,6.034,4.358,6.2,2.935,10.144,2.929,2.931v4.864H681.7l2.008-2.011,2.015-1.677v-2.683s-.17-3.349-.17-4.023,1.51-2.513,1.51-2.513l.17-2.852-.42-1.928,1.176-1.175.836-.836,1.422-1.427,1.847-1.844,2.764-2.766,1.423-1.427,2.016-2.514,1.507-1.507,1.512-1.508v-2.514l3.018-.841,2.514-.669,1-1.007,2.017.671,1.341,1.342,1.173,2.514,3.1,3.1,2.264,2.265,1,2.347v3.521l2.687,1.511h2.512l1.257-3.1,1.6,1.593v1.844l1.846,6.538,1.837,1.844v4.864l-1.506,3.691v2.6h1.931l1.927,1.929,1.844,1.844,1.506,2.849v1.68l.757,4.271.922.924,2.851,2.849,1.675,1.678,2.512-.167V381.3l-.665-3.353-1.009-3.521-1.342-2.847-2.681-2.009-2.851-2.852-.5-1.679-2.518-2.849v-2.346l-.673-3.858,2.017-2.011v-3.016l2.68,2.682,2.85,1.845,1.176,2.679,2.179,1.679,2.347.835.839,2.435h1.924l1.342-1.343,1.006-1.006.922-.921,3.02-1.176.5-1.674-.5-4.36-.506-3.02-1.844-5.2-1.175-2.516-3.516-1.507-2.685-2.681,1.092-2.6,4.276-4.273h1.845l.836,1.675,2.179.839,1.174-1.176,2.429-1.092L761,329.154l3.516-1.671h6.034l1.257-3.27,1.763-1.762,2.682-5.7.838-2.846v-4.027l-1.344-1.175v-3.854a21.274,21.274,0,0,1-3.521-1.675c-.5-.505-1.844-4.529-1.844-4.529l-3.016-1.678-.672-2.174,2.347-1.848,2.18-2.18-1.509-1.509-4.693.5-3.521-2.012-1.427-1.425,1.346-1.342,1.091-1.09,1.841-1.847h1.51l-.167,2.181,1.338,1.344,1.679-.126H770.6l1.469-1.467h1.257l2.093,2.1v2.095h1.425l1.931,1.929,1.675,1.678,1.846,4.19,1.507,1.508,3.189-.505L789,296.13l.335-2.01L787.99,290.6l-3.017-3.016-4.02-2.346V283.22l1.5-1.508.255-2.683v-2.764l1.716-1.719,1.718,1.719h2.092l1.344-1.345,1.258-1.256,1.344-4.022-.506-6.54v-3.518l-.838-2.35-1.762-1.759-.921-.924,1.6-1.591.752.755,2.518,3.016.667,2.685,2.353,2.346L798.3,265.2l1.767,1.76h2.429V265.03l-1.928-1.928-1.842-1.841,1.675-1.677-1.511-2.181-2.846-2.011-3.691-2.181-1.68-3.521H785.98l-2.346-2.35-3.776-.751-1.086,1.087-4.029-.5-3.182-1,1.173-3.519-.249-2.6,1.174-1.178,2.429-2.429h1.678l1.675-1.675,2.179,1.132h2.973l1.555-1.553h4.443l1.426,1.424h1.507l1.929.505V230.83l1.254-1.262h4.533l1.341,1.341h3.182c-1.171-1.171.836-3.016.836-3.016l1.515,1.51,1.506,2.012v1.677l-.417,3.94-1.929,1.927-.5,3.018,2.511,2.516,2.851,3.686,2.35,2.349,2.176,2.181,2.348,2.343H822.7l.841-.836L822.7,251.7l-.836-2.35,1.843-1.841.171-2.349-2.52-2.514-.672-2.013-2.844-2.347-2.182-1.511-1.845-1.842,2.345-1.679h3.017l2.058-2.052,2.135,2.139h1.764l2.093-2.1,2.685-2.849h2.513c5.365,0,2.18-1.845,2.18-1.845l-3.02-1.005-4.192-1.507-1.34-1.342,1.679-.167ZM589.152,279.865l-2.513,1.344h-3.522l-4.7-1.175-4.022-2.011h-4.863l-1.677,1.679-3.019.837-3.519-.505s-2.682-1.338-1.341-3.352c0,0,3.352-10.4,7.542-10.4l2.015,2.181,1,3.02h4.021l1.848-1.844-2.265-2.265,5.62-2.933,1.005,3.352-1.68,1.677,1.339,2.519,4.195,1.5,3.522,2.013,2.178,2.175Zm29.51,10.564-1.68,1.678-1.679.5c-.5-.5-6.537-3.521-6.537-3.521l-2.6-2.6a4.784,4.784,0,0,0,1.094-2.768v-2.848l-.841-3.189-2.85-.835-1.841-2.345-.672-1.51-1.426-1.429,3.519-3.519,4.777-2.6a18.9,18.9,0,0,1,3.691,1.508c.5.5,1.343,2.513.838,3.016s-3.185.5-3.185.5l-.841,1.514v2.175l1.511,1.511,2.515,1.844h3.02l1.842,2.683v1.677h-1l-1.177.5v2.18l1.932,1.929,1.76,1.759Zm14.708-74.187-.124,1.383-1.762.754-.629.377-1-1.256,1.131-1.132-.882-2.639v-1.639h1.131l1.639.76,1.628,2.262Z" transform="translate(-183.421 -184.557)"/>
        <path id="路径_49" data-name="路径 49" class="cls-1" d="M810.163,444.487l-5.026-2.514-3.526-5.787v-3.267l-4.9-4.9-2.266-2.26-1.5-1.514-2.388-2.388-2.135-2.136v-4.907l8.168,3.273,1.508,3.77,3.9,3.9,3.9,1.885,1.258,3.519h2.264v1.759l2.388,2.391,1.382,6.411S813.435,444.487,810.163,444.487Z" transform="translate(-246.922 -226.704)"/>
        <path id="路径_50" data-name="路径 50" class="cls-1" d="M818.322,454.766c.5.867,6.036,1.256,6.036,1.256l4.274.5,5.03,1.006,3.266,1.508h3.023v-3.019h-3.776l-3.268-3.267h-3.769l-1.764,1.759-1.635-1.633h-5.661S816.563,451.748,818.322,454.766Z" transform="translate(-252.563 -233.965)"/>
        <path id="路径_51" data-name="路径 51" class="cls-1" d="M843.306,438.551l-3.02-1H833.5l-2.018-2.017-2.26-2.261-1.759-5.034v-3.264l1.506-1.51h4.275v-3.271l2.768-2.014,2.516-2.512H841.8l1.757-4.274h3.768l2.4,2.388v3.395L847.893,419v1.948l2.705,3.269v2.518l-2.515,2.514v2.266l-2.644,2.637S846.069,438.551,843.306,438.551Z" transform="translate(-254.41 -226.048)"/>
        <path id="路径_52" data-name="路径 52" class="cls-1" d="M821.233,372.919v-4.027l4.779-.754v4.027l-1,1Z" transform="translate(-253.215 -217.754)"/>
        <path id="路径_53" data-name="路径 53" class="cls-1" d="M855.6,359.456H853.58l-1.384-1.383v-2.39l.631-3.267,2.011-2.012,1.129,1.132v2.388l.63,2.767S857.606,359.456,855.6,359.456Z" transform="translate(-259.153 -214.353)"/>
        <path id="路径_54" data-name="路径 54" class="cls-1" d="M874.069,330.816l-.876-2.137-1.515-1.511-.5-2.134.634-2.013,2.258,1.129,1.511,1.512a7.276,7.276,0,0,1,.63,2.263v1.633S876.838,330.816,874.069,330.816Z" transform="translate(-262.793 -209.101)"/>
        <path id="路径_55" data-name="路径 55" class="cls-1" d="M875.466,318.468H873.45l-.249-1.763,2.64-2.639,2.893.377h2.137l2.327-2.325,3.457-2.958.627-3.52-1.507-1.507v-2.893h1.507l2.646,1.007.878,2.891.882,2.261.629,2.9.877,1.756v3.522l-1.192,1.2s-.818.06-2.073.06h-2.142l-1.633.251-1.572,1.575-.191,2.328-.877-.882-1.258-2.514h-2.516l-.567.566,1.2,1.191s-.38,2.265,0,2.645-2.015.377-2.015.377v-1.382l-.881-1.64v-1.128Z" transform="translate(-263.181 -204.924)"/>
        <path id="路径_56" data-name="路径 56" class="cls-1" d="M886.713,296.676l-2.513.124-.629-2.263v-1.884l1.637-1.634-2.518-2.513v-1.762l2.39-.126,1.948,1.947,3.329,1.446,2.644.38,1.447,1.444-.817,1.7-1.322,1.319-.817.818-2.137-.5-1.385-1.385-1.386,1.508Z" transform="translate(-265.001 -202.12)"/>
        <path id="路径_57" data-name="路径 57" class="cls-1" d="M828.912,526.238c0-.672,3.359-3.523,3.359-3.523l.161-3.181V509.64l.506-5.7-.667-4.694,1.924-1.928,5.28-3.937,4.359-1.34,4.528-1.006,3.858-1.342,1.34-3.188,1.506-3.352h2.685l2.594-2.6,2.015-2.014,2.265-2.264,3.854-1.507,1.254,1.258,3.779,1.59s1.422-.165,1.422-1.42a14.284,14.284,0,0,1,.755-3.438l3.185-1.174,3.688-2.515h2.851l5.025,1.342,1.516,1.507-2.354,3.018-.833,2.181,1.671,2.848,3.02,1.511,2.6,2.6,1.929.251,2.345-2.353,2.681-2.843V474.1l1.008-4.022,1.674-1.842,1.681,1.506.667,2.68,3.524,3.355,1,4.86s-.5,2.181,0,2.689-.162,3.346-.162,3.346l2.345,2.352,2.35,4.358,1.339,3.521,2.011,3.018,3.606,3.6-1.429,5.956V514.5l-4.524,7.546-1.68,1.673-4.858,2.687-3.357,3.353v1.676l-.922.921-3.44,3.773-2.008,1.675h-3.188l-3.181,1.847-1.933,1.929h-2.093l-1.886-1.891h-6.5l-2.2-2.194v-3.544l.689-3.021-2.513-1.51-.5.5v-2.517h-1.511l-1.338,1.343-1.512-2.01-.332-2.349-4.36-1.845-2.176-2.179-2.52,1.006-3.852,1.012-3.02,1.169H854.23l-2.516,2.177-3.854.336-5.2.506-3.02,1.34-2.342.837-3.191.669h-3.015l-2.016-2.012Z" transform="translate(-254.688 -236.949)"/>
        <path id="路径_58" data-name="路径 58" class="cls-1" d="M901.629,570.778l-3.018-1.34v-2.012l1.01-2.182.162-2.011h2.185l.333,1.008h4.523v2.514l-1.841,1.68-1.262,1.256Z" transform="translate(-268.054 -255.167)"/>
        <path id="路径_59" data-name="路径 59" class="cls-1" d="M955.1,577.825h-5.2l-1.512,1.169v-1.68l.674-3.016,3.688-2.18,5.027-1.006,4.109-4.106,4.447-2.1,3.522-1.674H971.7l1,3.187-1.422,1.422-2.934.924-2.182,2.345-2.346.5-4.356,2.515-1.423,1.431-.923,1.586Z" transform="translate(-277.601 -255.167)"/>
        <path id="路径_60" data-name="路径 60" class="cls-1" d="M983.646,560.871l-2.68.172v-.838l1.929-1.929v-3.94l4.44-2.514V547.63L987,543.939h1.509v2.352l1.006,2.849.837.837,2.011,1.006h1.844v2.346l-.169,1.34-2.507.842-2.015,1.846-1.176,1.176-1.174,1.167Z" transform="translate(-283.848 -251.467)"/>
        <path id="路径_61" data-name="路径 61" class="cls-1" d="M987.185,502.794h-3.354l-4.529-5.865v-3.191h1.678l2.011,2.015,2.346,2.346,2.011,2.513Z" transform="translate(-283.529 -241.84)"/>
        <path id="路径_62" data-name="路径 62" class="cls-1" d="M993.841,486.6l-1.677-3.35.671-3.02,1.006,1.009,2.014-2.014.837.838v4.356l-1.09,1.094.253,1.591Z" transform="translate(-285.995 -239.056)"/>
        <path id="路径_63" data-name="路径 63" class="cls-1" d="M1024.342,489.85h-2.513v-3.016h2.852v-2.012l4.023.169v1.676l-1.846,1.173-2.011,2.009Z" transform="translate(-291.684 -240.13)"/>
        <path id="路径_64" data-name="路径 64" class="cls-1" d="M999.191,434.868h-2.513v-.5s-.5-1.172,0-1.68,2.513-.164,2.513-.164v2.347h-2.513" transform="translate(-286.818 -230.079)"/>
        <path id="路径_65" data-name="路径 65" class="cls-1" d="M1019.235,429.218h-2.517v-.506s-.5-1.174,0-1.675,2.517-.17,2.517-.17v2.351h-2.517" transform="translate(-290.661 -228.995)"/>
        <path id="路径_66" data-name="路径 66" class="cls-1" d="M1013.383,409.325h-2.515v-.5s-.5-1.17,0-1.674,2.515-.167,2.515-.167v2.345h-2.515" transform="translate(-289.539 -225.181)"/>
        <path id="路径_67" data-name="路径 67" class="cls-1" d="M970.991,409.325h-2.514v-.5s-.5-1.17,0-1.674,2.514-.167,2.514-.167v2.345h-2.514" transform="translate(-281.41 -225.181)"/>
        <path id="路径_68" data-name="路径 68" class="cls-1" d="M1033.092,464.087h-2.516v-.5s-.5-1.178,0-1.68,2.516-.168,2.516-.168v2.345h-2.516" transform="translate(-293.319 -235.683)"/>
        <path id="路径_69" data-name="路径 69" class="cls-1" d="M1050.889,484.1h-2.516v-.5s-.5-1.172,0-1.675,2.516-.167,2.516-.167V484.1h-2.516" transform="translate(-296.732 -239.522)"/>
        <path id="路径_70" data-name="路径 70" class="cls-1" d="M1040.081,499.243V497.23l2.515-.168v2.181Z" transform="translate(-295.184 -242.478)"/>
        <path id="路径_71" data-name="路径 71" class="cls-1" d="M1044.438,490.327l.169-2.681,2.178-.335,1.593,1.591-1.423,1.424Z" transform="translate(-296.02 -240.608)"/>
        <path id="路径_72" data-name="路径 72" class="cls-1" d="M1053.491,477.294v-1.512l2.513-.5v2.679h-2.846Z" transform="translate(-297.692 -238.301)"/>
        <path id="路径_73" data-name="路径 73" class="cls-1" d="M899.651,408.462l.332-1.844H902.5V409.3Z" transform="translate(-268.254 -225.133)"/>
        <path id="路径_74" data-name="路径 74" class="cls-1" d="M976.077,466.386l-2.011-1.672h-2.852v-2.181h2.852l1.508-3.015,1.675,3.849v3.194Z" transform="translate(-281.978 -235.278)"/>
        <path id="路径_75" data-name="路径 75" class="cls-1" d="M938.691,461.668l-4.524-1.511h-2.349l-2.179-1.848-4.362-4.358-1.675-1-2.181,1.51V456.3h-6.2l-3.012-1.673-5.033-.673v-3.019h2.011v-2.176c0-.842-1.178-1.848-1.178-1.848L906,444.9l-3.689-1.513-3.852-.666h-2.183l1.342-4.028-2.515-.836-1.679-2.517,1.01-1,3.353-.331,2.347,2.01,1.343,3.521h1.675l4.857-3.689H910.7l3.351,2.01,3.858,1.679,4.018,1.009,3.361,1.671,3.18,2.181,2.685,2.177V450.1l.836,3.521,2.349,2.342,3.519,2.853,1.68,1.84S939.867,461.668,938.691,461.668Z" transform="translate(-267.059 -230.385)"/>
        <path id="路径_76" data-name="路径 76" class="cls-1" d="M948.478,451.17h-2.514l-1.508-2.182,3.182-.837,2.271-2.264,2.591-1.928-1.926-1.927-2.6-1.094,1.344-1.343,2.176.339,2.349,2.347,1.342,1.677-.674,2.514-1.5,1.508-1.68,1.68Z" transform="translate(-276.846 -231.457)"/>
        <path id="路径_77" data-name="路径 77" class="cls-1" d="M966.045,459.707h-2.011v-4.025h-1.679l-2.178-2.178v-2.011l-.169-2.347,3.273,3.266h2.264l1.383,1.384-.044,2.39v2.849Z" transform="translate(-279.829 -233.289)"/>
        <path id="路径_78" data-name="路径 78" class="cls-1" d="M971.221,458.881l-.841-.842v-1.676l2.181-.17.836,2.349v1.347h-2.011Z" transform="translate(-281.818 -234.64)"/>
        <path id="路径_79" data-name="路径 79" class="cls-1" d="M852.091,461.5h-2.346l-.5-3.02,5.2.337Z" transform="translate(-258.587 -235.078)"/>
        <path id="路径_80" data-name="路径 80" class="cls-1" d="M858.432,465.055l-2.344-2.012H859.1l1.344,1.34Z" transform="translate(-259.899 -235.954)"/>
        <path id="路径_81" data-name="路径 81" class="cls-1" d="M864.093,461.072h-3.856v-1.843l2.847-.336,2.347.836Z" transform="translate(-260.695 -235.158)"/>
        <path id="路径_82" data-name="路径 82" class="cls-1" d="M871.512,464.259l-3.185-.336v-2.182l3.69-2.012,4.693-.836,1,1.009-2.681,1.17h-1.344l-2.264,2.264Z" transform="translate(-262.247 -235.158)"/>
        <path id="路径_83" data-name="路径 83" class="cls-1" d="M860.287,446.4h-4.529l.672-4.191-1.178-1.178,1.348-3.852L858.441,436v-4.186l1.01-3.021,2.007-.5,4.36-.336h3.69l2.012-1.005-.339,2.178-1.505,1.511s.163.579-.589.579-3.438-.418-3.438-.418l-1.093-1.086-2.931,1.423-1.258,1.261,1.345,1.339h2.932l2.013.251-1.428,1.426-1.842,1.843,2.177,2.181v3.1l-.877.879h-1.72V440.7l-2.182-1.174-2.346,2.346.92.924Z" transform="translate(-259.739 -229.032)"/>
        <path id="路径_84" data-name="路径 84" class="cls-1" d="M884.252,431.216l-3.685-.17,2.011-2.017-.506-4.52a8.2,8.2,0,0,1,2.348-.672c.84,0,.84,2.179.84,2.179l-.84,1.509v2.009Z" transform="translate(-264.594 -228.435)"/>
        <path id="路径_85" data-name="路径 85" class="cls-1" d="M888.034,443.652l-2.853.172-1.5-1.511v-1.68h3.353l2.514,1.183Z" transform="translate(-265.191 -231.656)"/>
        <path id="路径_86" data-name="路径 86" class="cls-1" d="M854.257,403.525l-3.19-.333a3.033,3.033,0,0,1,.506-2.852c1.087-1.086,3.352-2.849,3.352-2.849l.924.925v1.758Z" transform="translate(-258.907 -223.383)"/>
        <path id="路径_87" data-name="路径 87" class="cls-1" d="M861.323,389.542l-2.347-1.005-.165-3.354-1.676-3.356-.841-4.524,1.68-5.535,3.349,1.508.335,3.691-1.006,3.854,2.182,2.18,3.185.5,1,2.18v1.841h-2.011l-2.178-1h-1.676Z" transform="translate(-259.939 -218.449)"/>
        <path id="路径_88" data-name="路径 88" class="cls-1" d="M873.755,411.332h-2.344l-2.352-3.854h-3.011l.331-2.683h3.187l4.359-4.195s2.682,2.853,2.682,3.521v3.521l-.166,1.845Z" transform="translate(-261.81 -223.979)"/>
        <path id="路径_89" data-name="路径 89" class="cls-1" d="M867.454,401.73l-1.507-1.508V398.8l-1.8-1.8-.794-1.047.332-1.844H865.7l1-1.175h.84l-.5,1.675-.5.505-.168,1.508,1.007,1.006s1,.332,1,1A17.908,17.908,0,0,1,867.454,401.73Z" transform="translate(-261.292 -222.508)"/>
        <path id="路径_90" data-name="路径 90" class="cls-1" d="M873.4,397.789l-1.676.5v-3.352l-1.423-1.43,3.6-.584,1.594,1.593-1.594,1.426Z" transform="translate(-262.625 -222.508)"/>
      </g>
    </g>
  </g>
</svg>
