<svg xmlns="http://www.w3.org/2000/svg" width="60.192" height="74.965" viewBox="0 0 60.192 74.965">
  <defs>
    <style>
      .cls-1 {
        fill: #fff;
      }
    </style>
  </defs>
  <path id="非公有制经济人士" class="cls-1" d="M212.061,132.263a15.614,15.614,0,0,0,15.6-15.577,15.175,15.175,0,0,0-4.31-11.117,15.6,15.6,0,0,0-11.286-4.758,15.727,15.727,0,0,0,0,31.452Zm0-26.9A11.043,11.043,0,1,1,201.018,116.4,11.19,11.19,0,0,1,212.061,105.359Zm5.211,39.2a1.27,1.27,0,0,0,.495-.985,1.938,1.938,0,0,0-.5-.99l-4.216-4.216a1.368,1.368,0,0,0-.99-.374,1.385,1.385,0,0,0-.99.369l-4.216,4.216a1.4,1.4,0,0,0-.369.99,1.377,1.377,0,0,0,.369.99l3.978,4.314-4.487,13.723c-.2.388-.075.607.257,1.223l4.473,6.317a1.929,1.929,0,0,0,.985.5,1.3,1.3,0,0,0,.981-.486l4.487-6.341c.238-.233.238-.752.243-1.223l-4.468-13.8,3.969-4.226Zm13.121-10.763a2.642,2.642,0,0,0-.654-.084,2.335,2.335,0,0,0-.392,4.6c8.078,1.821,8.512,8.666,8.269,15.544v11.08c0,4.767-4.282,5.767-7.882,5.767H221.82a2.407,2.407,0,1,0,0,4.814h7.91c7.55,0,12.425-4.156,12.425-10.58V153.481c.009-6.261.023-16.739-11.762-19.686ZM202.3,171.228h-7.914c-3.6,0-7.882-1-7.882-5.766v-11.08c0-7.6.607-13.569,8.279-15.549a2.381,2.381,0,0,0,1.494-1.013,2.241,2.241,0,0,0,.233-1.774,2.161,2.161,0,0,0-2.129-1.812,2.6,2.6,0,0,0-.644.084c-11.794,2.68-11.781,13.4-11.776,19.8V165.2c0,6.425,4.879,10.58,12.429,10.58h7.91a2.381,2.381,0,0,0,2.409-2.409,2.328,2.328,0,0,0-2.409-2.139Z" transform="translate(-181.963 -100.811)"/>
</svg>
