<svg xmlns="http://www.w3.org/2000/svg" width="47" height="55" viewBox="0 0 47 55">
  <defs>
    <style>
      .cls-1 {
        fill: #03a9f4;
      }

      .cls-2 {
        fill: #fff;
      }
    </style>
  </defs>
  <g id="组_33" data-name="组 33" transform="translate(-307 -713.479)">
    <g id="组_32" data-name="组 32" transform="translate(307 713.479)">
      <g id="组_31" data-name="组 31">
        <g id="组_30" data-name="组 30">
          <g id="组_29" data-name="组 29">
            <g id="组_28" data-name="组 28">
              <g id="组_27" data-name="组 27">
                <g id="组_26" data-name="组 26">
                  <g id="组_25" data-name="组 25">
                    <g id="组_24" data-name="组 24">
                      <g id="组_23" data-name="组 23">
                        <g id="组_22" data-name="组 22">
                          <g id="组_21" data-name="组 21">
                            <g id="组_20" data-name="组 20">
                              <g id="组_19" data-name="组 19">
                                <g id="组_18" data-name="组 18">
                                  <g id="组_17" data-name="组 17">
                                    <path id="减去_1" data-name="减去 1" class="cls-1" d="M41,55H6a6.007,6.007,0,0,1-6-6V6A6.007,6.007,0,0,1,6,0H25.308V16.4a4,4,0,0,0,4,4H47V49A6.007,6.007,0,0,1,41,55Z"/>
                                    <g id="组_16" data-name="组 16" transform="translate(12 25)">
                                      <rect id="矩形_14" data-name="矩形 14" class="cls-2" width="23" height="5" transform="translate(0)"/>
                                      <rect id="矩形_15" data-name="矩形 15" class="cls-2" width="23" height="4" transform="translate(0 9)"/>
                                      <rect id="矩形_16" data-name="矩形 16" class="cls-2" width="23" height="4" transform="translate(0 17)"/>
                                    </g>
                                    <path id="路径_111" data-name="路径 111" class="cls-1" d="M16.074,0V16.938H0Z" transform="translate(46.51 0.437) rotate(90)"/>
                                  </g>
                                </g>
                              </g>
                            </g>
                          </g>
                        </g>
                      </g>
                    </g>
                  </g>
                </g>
              </g>
            </g>
          </g>
        </g>
      </g>
    </g>
  </g>
</svg>
