<svg xmlns="http://www.w3.org/2000/svg" width="42.554" height="49.541" viewBox="0 0 42.554 49.541">
  <defs>
    <style>
      .cls-1 {
        fill: #34a853;
      }
    </style>
  </defs>
  <path id="积分兑换" class="cls-1" d="M111.19,13.416h-8.23a13.153,13.153,0,0,0,2.518-1.842c3.294-3.125,3.89-7.628,1.326-10.06A5.829,5.829,0,0,0,102.7,0a9.654,9.654,0,0,0-6.5,2.769A13.074,13.074,0,0,0,93.46,6.621a13.253,13.253,0,0,0-2.741-3.849A9.662,9.662,0,0,0,84.215,0a5.867,5.867,0,0,0-4.1,1.512c-2.557,2.432-1.961,6.935,1.33,10.06a13.153,13.153,0,0,0,2.518,1.842H75.73a3.585,3.585,0,0,0-3.546,3.607V29.669h19.5V15a3.934,3.934,0,0,0,1.684-.9c.036-.032.057-.076.088-.1.032.032.057.07.089.1a4.018,4.018,0,0,0,1.684.9V29.669h19.5V17.024a3.585,3.585,0,0,0-3.546-3.607ZM98.668,5.465a6.137,6.137,0,0,1,4.039-1.772,2.424,2.424,0,0,1,1.631.521,1.478,1.478,0,0,1,.439,1.194,5.139,5.139,0,0,1-1.762,3.474,10.109,10.109,0,0,1-6.11,2.655,3.36,3.36,0,0,1-.85-.1c-.351-.73.411-3.874,2.613-5.97ZM82.143,5.4a1.469,1.469,0,0,1,.445-1.188,2.425,2.425,0,0,1,1.631-.521,6.14,6.14,0,0,1,4.039,1.772c2.216,2.109,2.979,5.29,2.667,5.919a1.851,1.851,0,0,1-.9.152,10.089,10.089,0,0,1-6.106-2.655A5.132,5.132,0,0,1,82.149,5.4Zm13.092,44.14h15.957a3.59,3.59,0,0,0,3.546-3.614V33.283h-19.5V49.541ZM72.184,45.928a3.59,3.59,0,0,0,3.546,3.614H91.688V33.283h-19.5V45.928Zm0,0" transform="translate(-72.184 0)"/>
</svg>
