<svg xmlns="http://www.w3.org/2000/svg" width="54.658" height="55" viewBox="0 0 54.658 55">
  <defs>
    <style>
      .cls-1 {
        fill: #9c89b9;
      }
    </style>
  </defs>
  <path id="签到_2_" data-name="签到 (2)" class="cls-1" d="M47.857,23.474a1.619,1.619,0,0,0-1.713,1.713V47.118a4.249,4.249,0,0,1-4.112,4.455H10.162c-2.4,0-5.14-2.056-5.14-4.455V15.249c0-2.4,2.741-4.8,5.14-4.8H28.324a1.619,1.619,0,0,0,1.713-1.713,1.619,1.619,0,0,0-1.713-1.713H10.162c-4.8,0-8.567,3.427-8.567,8.224V47.118C1.6,51.916,5.364,55,10.162,55H42.031c4.8,0,7.539-3.084,7.539-7.882V25.53A1.919,1.919,0,0,0,47.857,23.474ZM54.71,4.283,51.969,1.542a5.378,5.378,0,0,0-7.539,0l-4.8,5.826L13.589,32.726v.685h0L10.162,44.72l2.4,2.056,10.623-3.769h.685L48.885,16.62l5.826-4.8A5.378,5.378,0,0,0,54.71,4.283ZM14.959,41.978l1.713-4.8,3.084,3.084Zm7.882-3.427-4.8-4.8,23.645-23.3,4.455,4.455Zm29.47-29.47-3.427,3.427-5.14-5.14,3.427-3.427c.343,0,1.028-.343,1.371-.343s1.028.343,1.371.343l2.741,2.741A2.111,2.111,0,0,1,52.312,9.081Z" transform="translate(-1.595)"/>
</svg>
