<svg xmlns="http://www.w3.org/2000/svg" width="48.113" height="50.063" viewBox="0 0 48.113 50.063">
  <defs>
    <style>
      .cls-1 {
        fill: #fd476b;
      }
    </style>
  </defs>
  <g id="收入明细_1_" data-name="收入明细 (1)" transform="translate(-25.6 -11.264)">
    <path id="路径_95" data-name="路径 95" class="cls-1" d="M31.4,11.289a5.968,5.968,0,0,0-5.8,5.8V51.881a5.986,5.986,0,0,0,5.8,5.8H52.543a12.275,12.275,0,0,1-2.051-6.812A12.812,12.812,0,0,1,63.1,38.258a10.362,10.362,0,0,1,3.419.684V17.063a5.986,5.986,0,0,0-5.8-5.8H31.4v.025Zm5.8,14.662H54.949a1.471,1.471,0,0,1,1.367,1.367,1.45,1.45,0,0,1-1.367,1.367H37.2a1.367,1.367,0,0,1,0-2.735Zm0,7.166H54.949a1.471,1.471,0,0,1,1.367,1.367,1.45,1.45,0,0,1-1.367,1.367H37.2a1.367,1.367,0,0,1,0-2.735Zm11.952,9.9H37.2a1.367,1.367,0,0,1,0-2.735H48.8c1.013,0,1.7.355,1.7,1.367A1.252,1.252,0,0,1,49.15,43.018Z" transform="translate(0)"/>
    <path id="路径_96" data-name="路径 96" class="cls-1" d="M593.936,608.768a10.256,10.256,0,1,0,10.256,10.256A10.245,10.245,0,0,0,593.936,608.768Zm3.748,9.952v1.241h-3.115v1.646h3.14v1.241h-3.14v3.368h-1.241v-3.368h-3.14v-1.241h3.14v-1.646h-3.14V618.72h2.254l-3.646-5.9h1.671l3.419,5.9,3.469-5.9h1.671l-3.646,5.9Z" transform="translate(-530.479 -567.953)"/>
  </g>
</svg>
