<svg xmlns="http://www.w3.org/2000/svg" width="51.106" height="48.353" viewBox="0 0 51.106 48.353">
  <defs>
    <style>
      .cls-1 {
        fill: #e82225;
      }
    </style>
  </defs>
  <g id="组_8" data-name="组 8" transform="translate(-603.695 -896.097)">
    <g id="提现" transform="translate(603.695 896.097)">
      <path id="路径_91" data-name="路径 91" class="cls-1" d="M48.672,0H2.434A2.441,2.441,0,0,0,0,2.434V14.022a2.441,2.441,0,0,0,2.434,2.434H6.162V10.662a2.434,2.434,0,0,1,.087-4.867H44.857a2.434,2.434,0,0,1,.087,4.867v5.794h3.729a2.441,2.441,0,0,0,2.434-2.434V2.434A2.441,2.441,0,0,0,48.672,0Z"/>
      <path id="路径_92" data-name="路径 92" class="cls-1" d="M208.422,169.646H180.469a3.129,3.129,0,0,0-3.117,3.114v34.112a3.129,3.129,0,0,0,3.117,3.116h27.953a3.125,3.125,0,0,0,3.116-3.116V172.76a3.129,3.129,0,0,0-3.116-3.114Zm-6.638,23.114a1.526,1.526,0,1,1,0,3.052h-5.813V199.4a1.526,1.526,0,1,1-3.052,0v-3.592h-5.813a1.526,1.526,0,1,1,0-3.052h5.813v-1.468h-5.813a1.526,1.526,0,1,1,0-3.052h5.813v-.264l-4.945-4.945a1.526,1.526,0,0,1,2.158-2.158l4.313,4.313,4.315-4.313a1.526,1.526,0,1,1,2.158,2.158l-4.947,4.946v.264h5.813a1.526,1.526,0,1,1,0,3.052h-5.813v1.468Z" transform="translate(-168.978 -161.635)"/>
    </g>
  </g>
</svg>
