<svg xmlns="http://www.w3.org/2000/svg" width="30.947" height="38.683" viewBox="0 0 30.947 38.683">
  <defs>
    <style>
      .cls-1 {
        fill: #4c4c4c;
      }
    </style>
  </defs>
  <path id="消息" class="cls-1" d="M123.031,33.523a5.158,5.158,0,1,1-10.316,0ZM121.312,3.439a3.439,3.439,0,1,0-6.83.568,13.579,13.579,0,0,0-8.643,12.75v4.734s0,6.818-1.675,6.877a1.72,1.72,0,1,0-.045,3.439h27.509a1.719,1.719,0,0,0,0-3.439c-1.72,0-1.72-6.829-1.72-6.829V16.757c0-6.021-3.642-11.105-8.642-12.755A3.454,3.454,0,0,0,121.312,3.439Z" transform="translate(-102.4)"/>
</svg>
