<svg xmlns="http://www.w3.org/2000/svg" width="113.571" height="113.571" viewBox="0 0 113.571 113.571">
  <defs>
    <style>
      .cls-1 {
        fill: #f15e3e;
      }
    </style>
  </defs>
  <g id="组_39" data-name="组 39" transform="translate(-445.709 -606.72)">
    <g id="组_38" data-name="组 38">
      <path id="积分增加" class="cls-1" d="M56.786,113.571a56.786,56.786,0,1,1,56.786-56.786A56.786,56.786,0,0,1,56.786,113.571ZM79,77.309a3.732,3.732,0,0,0,2.122-3V70.354a17.783,17.783,0,0,1-6.811,2.974,46.77,46.77,0,0,1-19.095,0,17.78,17.78,0,0,1-7-2.976v3.96c0,1.092.636,2.1,2.121,3a18.717,18.717,0,0,0,6.026,2.142,42.737,42.737,0,0,0,16.591,0A18.014,18.014,0,0,0,79,77.309Zm0-8.969h-.105c1.485-.857,2.228-1.884,2.228-3v-3.96a17.468,17.468,0,0,1-6.79,2.976,41.212,41.212,0,0,1-9.546,1.027,43.691,43.691,0,0,1-9.548-1.027,17.464,17.464,0,0,1-7-2.976v3.959c0,1.115.636,2.1,2.121,3a18.717,18.717,0,0,0,6.026,2.142,40.3,40.3,0,0,0,8.3.792,40.3,40.3,0,0,0,8.3-.793A18.983,18.983,0,0,0,79,68.341Zm0-8.927-.105.021c1.485-.876,2.228-1.926,2.228-3.018V53.442c0-1.092-.743-2.1-2.228-3A18.689,18.689,0,0,0,72.869,48.3a43.288,43.288,0,0,0-16.591-.021,18.983,18.983,0,0,0-6.047,2.142,3.779,3.779,0,0,0-2.122,3v3.1c0,1.092.638,2.077,2.122,3a19.573,19.573,0,0,0,6.047,2.142,40.708,40.708,0,0,0,16.7-.109A19.616,19.616,0,0,0,79,59.414ZM45.055,52.671c-.318-5.18,8.339-8.307,13.3-8.307l6.258-.535V42.5c0-1.264-.87-2.356-2.588-3.4a22.779,22.779,0,0,0-7.087-2.482,47.326,47.326,0,0,0-9.676-.923,47.326,47.326,0,0,0-9.675.92A22.633,22.633,0,0,0,28.568,39.1c-1.739,1.053-2.609,2.166-2.609,3.409v3.36c0,1.241.87,2.356,2.609,3.4a21.947,21.947,0,0,0,7.024,2.505,46.316,46.316,0,0,0,9.462.9Zm0,3.4-.148-.021A51.853,51.853,0,0,1,34.13,54.918a21.682,21.682,0,0,1-8.171-3.381v4.517c0,1.22.87,2.333,2.758,3.381a21.914,21.914,0,0,0,7.022,2.482,47.016,47.016,0,0,0,9.314.922V56.073Zm0,10.168h-.148A51.853,51.853,0,0,1,34.13,65.088,21.682,21.682,0,0,1,25.959,61.7V66.2c0,1.243.87,2.356,2.758,3.4a21.914,21.914,0,0,0,7.022,2.484,46.893,46.893,0,0,0,9.314.92V66.244Zm0,10.168-.148.065a51.494,51.494,0,0,1-10.757-1.157,21.685,21.685,0,0,1-8.192-3.444v4.494c0,1.243.912,2.356,2.737,3.49a22.4,22.4,0,0,0,7.022,2.505,47.351,47.351,0,0,0,9.336.9,2.418,2.418,0,0,1,0-.428V76.412Zm19.667,6.873H64.68a45.1,45.1,0,0,1-9.546-.985,18.1,18.1,0,0,1-7-2.976v3.959c0,1.092.638,2.1,2.122,3a18.742,18.742,0,0,0,6.026,2.142,42.821,42.821,0,0,0,16.591,0A18.982,18.982,0,0,0,78.9,86.28c1.483-.858,2.226-1.929,2.226-3V79.321A18.1,18.1,0,0,1,74.269,82.3a43.73,43.73,0,0,1-9.548.985ZM79.506,38.942h4.952a2.677,2.677,0,0,0,0-5.354H79.506V28.636a2.677,2.677,0,1,0-5.354,0v4.953H69.2a2.677,2.677,0,0,0,0,5.354h4.953V43.9a2.677,2.677,0,1,0,5.354,0V38.944Z" transform="translate(445.709 606.72)"/>
    </g>
  </g>
</svg>
