<?xml version="1.0" standalone="no"?><!DOCTYPE svg PUBLIC "-//W3C//DTD SVG 1.1//EN" "http://www.w3.org/Graphics/SVG/1.1/DTD/svg11.dtd"><svg t="1582016199862" class="icon" viewBox="0 0 1073 1024" version="1.1" xmlns="http://www.w3.org/2000/svg" p-id="2007" width="134.125" height="128" xmlns:xlink="http://www.w3.org/1999/xlink"><defs><style type="text/css"></style></defs><path d="M1054.294081 472.070716l-197.823592 170.398879a53.386773 53.386773 0 0 0-15.357839 46.804843l46.804843 273.515798a45.342191 45.342191 0 0 1-17.551816 50.095808 57.043402 57.043402 0 0 1-60.70003 4.387954l-249.382052-135.295248a52.655448 52.655448 0 0 0-48.998819 0l-239.143492 135.295248a57.409065 57.409065 0 0 1-60.70003-4.387954A52.289785 52.289785 0 0 1 182.919553 962.424573l57.043402-279.00074a53.386773 53.386773 0 0 0-15.357839-46.804843l-206.965163-164.548274a57.774727 57.774727 0 0 1 31.812666-98.728965l270.590496-47.901831a52.655448 52.655448 0 0 0 39.857249-28.887363L484.591389 32.178329a57.409065 57.409065 0 0 1 103.116919 0l119.937409 264.374228a52.655448 52.655448 0 0 0 39.857248 28.887363L1023.944066 373.341751a57.409065 57.409065 0 0 1 46.43918 39.491586 58.14039 58.14039 0 0 1-14.626514 59.237379z" fill="#FEBD00" p-id="2008"></path></svg>