<svg xmlns="http://www.w3.org/2000/svg" width="18.714" height="17.391" viewBox="0 0 18.714 17.391">
  <defs>
    <style>
      .cls-1 {
        fill: #878787;
      }
    </style>
  </defs>
  <path id="收_藏_1_" data-name="收 藏 (1)" class="cls-1" d="M75.406,93.184a5.129,5.129,0,0,0-4.1,2.145,5.113,5.113,0,0,0-4.1-2.145,5.528,5.528,0,0,0-5.26,5.751,7.634,7.634,0,0,0,1.526,4.289c1.974,3.1,6.946,6.956,7.159,7.116a1.08,1.08,0,0,0,1.344,0c.213-.16,5.175-4.022,7.159-7.116a7.634,7.634,0,0,0,1.526-4.289,5.528,5.528,0,0,0-5.26-5.751Z" transform="translate(-61.952 -93.184)"/>
</svg>
