<svg xmlns="http://www.w3.org/2000/svg" width="339.539" height="220.641" viewBox="0 0 339.539 220.641">
  <defs>
    <style>
      .cls-1 {
        fill: #febd00;
      }
    </style>
  </defs>
  <g id="组_40" data-name="组 40" transform="translate(-205 -439.388)">
    <path id="正在审核" class="cls-1" d="M72.09,180.932H219.656a2.256,2.256,0,1,1,0,4.513H72.09a2.256,2.256,0,1,1,0-4.513ZM23.7,194.469H90.39a2.256,2.256,0,1,1,0,4.513H23.7a2.257,2.257,0,1,1,0-4.513Zm91.016,0H280.763a2.256,2.256,0,1,1,0,4.513H114.717a2.257,2.257,0,0,1,0-4.513Zm-112.467,0h9.8a2.256,2.256,0,0,1,0,4.513h-9.8a2.257,2.257,0,0,1,0-4.513Zm225.377-13.537h6.655a2.256,2.256,0,0,1,0,4.513h-6.655a2.256,2.256,0,0,1,0-4.513Zm66.822,13.537h11.97a2.256,2.256,0,1,1,0,4.513h-11.97a2.257,2.257,0,0,1,0-4.513ZM220.714,216.13h24.361a2.256,2.256,0,1,1,0,4.511H220.714a2.256,2.256,0,1,1,0-4.511Zm-10.369,0h3.516a2.256,2.256,0,1,1,0,4.511h-3.516a2.256,2.256,0,1,1,0-4.511Zm-88.712,0h38.488a2.256,2.256,0,1,1,0,4.511H121.63a2.256,2.256,0,0,1,0-4.511Zm57.794,0h24.363a2.256,2.256,0,1,1,0,4.511H179.428a2.256,2.256,0,1,1,0-4.511Zm-122.314-35.2h6.655a2.256,2.256,0,1,1,0,4.513H57.112a2.256,2.256,0,1,1,0-4.513Zm43.779,13.537h5.281a2.256,2.256,0,1,1,0,4.513h-5.281a2.257,2.257,0,1,1,0-4.513ZM127.545,93.663A3.676,3.676,0,0,1,123.88,90v-.734a3.675,3.675,0,0,1,3.665-3.665h41.049a3.675,3.675,0,0,1,3.665,3.665V90a3.676,3.676,0,0,1-3.665,3.665Zm-3.665,12.5v-.734a3.675,3.675,0,0,1,3.665-3.665h41.049a3.675,3.675,0,0,1,3.665,3.665v.734a3.676,3.676,0,0,1-3.665,3.665H127.545a3.676,3.676,0,0,1-3.665-3.665Zm33.354,62.6a32.4,32.4,0,0,0,7.117,5.388H115.395A12.109,12.109,0,0,1,103.3,162.059V73.236a12.109,12.109,0,0,1,12.094-12.094H188.18a12.109,12.109,0,0,1,12.094,12.094v47.606a32.014,32.014,0,0,0-8.063-4.767V73.237a4.036,4.036,0,0,0-4.032-4.031H115.395a4.035,4.035,0,0,0-4.031,4.031v88.821a4.035,4.035,0,0,0,4.031,4.032h39.444a32.569,32.569,0,0,0,2.4,2.675Zm43.582-7.641a4.031,4.031,0,0,1-5.7,5.7l-6.064-6.063a20.175,20.175,0,1,1,5.675-5.728ZM165.771,144a12.094,12.094,0,1,0,12.094-12.1A12.109,12.109,0,0,0,165.771,144ZM27.627,61a12.35,12.35,0,1,1,12.35-12.35A12.35,12.35,0,0,1,27.627,61Zm.044-5.646a6.661,6.661,0,1,0-6.661-6.661,6.661,6.661,0,0,0,6.661,6.661ZM21.284,110.5a.843.843,0,1,1,0,1.685l-8.355,0v8.4a.843.843,0,1,1-1.685,0v-8.407l-8.495,0a.843.843,0,1,1,0-1.685l8.493,0v-8.386a.844.844,0,0,1,1.687,0V110.5Zm124.1-100.482a1.166,1.166,0,0,1,0,2.333h-8.85V21.2a1.166,1.166,0,0,1-2.333,0V12.349h-8.852a1.166,1.166,0,0,1,0-2.331H134.2V1.165a1.166,1.166,0,0,1,2.331,0v8.852ZM249.5,87.988c-.984-.982-1.964-1.968-2.952-2.946-.109-.107-.1-.164,0-.264.241-.229.468-.47.707-.711l.122.115,2.983,2.979c.1.1.09.153,0,.243-.237.229-.466.47-.711.722-.065-.059-.109-.1-.149-.138Zm7.431,5.677,3.091,3.1a.3.3,0,0,1,.032.055c-.26.256-.518.516-.783.764-.021.019-.115-.008-.149-.042-.436-.426-.866-.86-1.3-1.29l-1.685-1.687-.117-.122a.8.8,0,0,1,.057-.084c.229-.229.457-.455.682-.684C256.818,93.615,256.862,93.6,256.929,93.664Zm-.235-5.717c-.2-.214-.411-.418-.619-.623-.057-.057-.078-.1-.012-.168l3.048-3.044a.584.584,0,0,1,.067-.046c.258.26.51.51.757.766.019.019.011.076,0,.109s-.038.044-.057.063q-1.473,1.473-2.942,2.944c-.1.1-.151.1-.243,0ZM249.72,93.7c.2.214.411.417.621.621.057.057.076.1.01.17L247.3,97.528a.737.737,0,0,1-.067.048c-.26-.26-.512-.51-.758-.766-.019-.019-.011-.076,0-.111s.038-.042.057-.063q1.47-1.47,2.94-2.942c.1-.1.153-.1.243,0Zm3.655-9.513c0,.615,0,1.23,0,1.846,0,.134-.038.176-.172.172q-.433-.012-.866,0c-.1,0-.139-.021-.139-.128V82.292c0-.1.032-.138.134-.134.3,0,.6.006.894,0,.12-.006.149.038.149.149,0,.625,0,1.25,0,1.874ZM248.6,89.964q-.012.439,0,.879c0,.1-.034.134-.134.134q-1.892-.006-3.777,0c-.109,0-.13-.046-.13-.141.006-.3.006-.6,0-.892,0-.111.034-.143.143-.143.623,0,1.248,0,1.872,0s1.24,0,1.859,0c.126,0,.172.031.166.164Zm13.375-.008c-.008.3-.006.594,0,.892,0,.1-.032.126-.128.126H258.07c-.115,0-.14-.044-.138-.147.006-.292.008-.587,0-.879,0-.117.036-.149.151-.149.623,0,1.248,0,1.872,0s1.24,0,1.859,0C261.933,89.8,261.977,89.83,261.973,89.956Zm-8.6,7.585c0,.625,0,1.25,0,1.872,0,.122-.033.162-.155.159q-.447-.01-.894,0c-.1,0-.126-.032-.126-.128V95.667c0-.1.031-.138.134-.134.3,0,.6.006.892,0,.119-.006.153.034.151.149-.006.619,0,1.24,0,1.859ZM240.568,41.135a9.385,9.385,0,1,1,9.385-9.385,9.385,9.385,0,0,1-9.385,9.385Zm.138-3.917a5.346,5.346,0,1,0-5.346-5.346A5.346,5.346,0,0,0,240.706,37.218Zm83.2,33.933a.387.387,0,0,1-.546.548l-3.827-3.827L315.7,71.7a.386.386,0,0,1-.546-.546l3.827-3.827L315.153,63.5a.386.386,0,0,1,.546-.546l3.829,3.827,3.827-3.827a.386.386,0,1,1,.546.546l-3.827,3.829Zm8.266,48.659a7.363,7.363,0,1,1,7.363-7.363,7.363,7.363,0,0,1-7.363,7.363Zm.21-2.826a4.6,4.6,0,1,0-4.6-4.6A4.6,4.6,0,0,0,332.377,116.984Z" transform="translate(205.009 439.388)"/>
  </g>
</svg>
