<svg xmlns="http://www.w3.org/2000/svg" width="23.397" height="31.196" viewBox="0 0 23.397 31.196">
  <defs>
    <style>
      .cls-1 {
        fill: #bfbfbf;
      }
    </style>
  </defs>
  <path id="地址" class="cls-1" d="M188,64.4c-6.458,0-11.7,5.535-11.7,12.378a12.82,12.82,0,0,0,2.084,7.047,2.544,2.544,0,0,0,.2.329l7.967,10.619a1.686,1.686,0,0,0,2.9,0l7.969-10.619a3.044,3.044,0,0,0,.191-.316,12.826,12.826,0,0,0,2.09-7.058c0-6.845-5.238-12.38-11.7-12.38Zm7.687,18.019-.059.094-.051.1-.039.069L188,92.731l-7.538-10.05-.047-.086-.051-.1-.056-.077a10.242,10.242,0,0,1-1.666-5.639,9.372,9.372,0,1,1,18.713,0,10.245,10.245,0,0,1-1.668,5.641ZM188,71.831a4.961,4.961,0,1,0,4.679,4.953A4.824,4.824,0,0,0,188,71.831Zm0,7.433a2.481,2.481,0,1,1,2.34-2.479A2.416,2.416,0,0,1,188,79.263Zm0,0" transform="translate(-176.304 -64.404)"/>
</svg>
