<svg xmlns="http://www.w3.org/2000/svg" width="18.367" height="18.356" viewBox="0 0 18.367 18.356">
  <defs>
    <style>
      .cls-1 {
        fill: #878787;
      }
    </style>
  </defs>
  <path id="时间" class="cls-1" d="M68.063,75.264a9.178,9.178,0,1,0,9.183,9.173A9.167,9.167,0,0,0,68.063,75.264Zm5.985,11.958a.7.7,0,0,1-.657.424.672.672,0,0,1-.286-.042l-5.413-2.457a.749.749,0,0,1-.424-.657V79.405a.71.71,0,0,1,1.419,0v4.66l4.989,2.256A.667.667,0,0,1,74.048,87.222Z" transform="translate(-58.88 -75.264)"/>
</svg>
