<svg xmlns="http://www.w3.org/2000/svg" width="17.631" height="18.831" viewBox="0 0 17.631 18.831">
  <defs>
    <style>
      .cls-1 {
        fill: #878787;
      }
    </style>
  </defs>
  <path id="收入_1_" data-name="收入 (1)" class="cls-1" d="M97.5,57.56a8.739,8.739,0,0,0-1.513-1.3c-.1-.052-.157-.1-.261-.156a2.1,2.1,0,0,0,1.252-1.826,2.69,2.69,0,0,0-3.547-2.034,1.738,1.738,0,0,0-.313.156.314.314,0,0,1-.209-.052,2.047,2.047,0,0,0-3.338-.574,2.6,2.6,0,0,0-.522.574c0-.052-.1,0-.157-.052a.849.849,0,0,0-.313-.156,2.437,2.437,0,0,0-.887-.156,2.469,2.469,0,0,0-2.66,2.191A2.1,2.1,0,0,0,86.282,56a1.139,1.139,0,0,1-.261.157,11.778,11.778,0,0,0-1.513,1.3,7.205,7.205,0,0,0-2.3,4.955c0,5.112,3.964,7.564,8.711,7.564h.209c4.747,0,8.711-2.452,8.711-7.564A7.266,7.266,0,0,0,97.5,57.56Zm-3.912,5.268a.522.522,0,0,1,0,1.043H91.5v2.034a.522.522,0,0,1-1.043,0V63.872H88.368a.522.522,0,0,1,0-1.043h2.087V61.577H88.316a.522.522,0,0,1,0-1.043h1.565L88.16,58.812a.516.516,0,0,1,.73-.73l2.087,2.087,2.087-2.087a.516.516,0,0,1,.73.73l-1.721,1.721h1.565a.522.522,0,0,1,0,1.043H91.5v1.252h2.087Z" transform="translate(-82.213 -51.144)"/>
</svg>
