<svg xmlns="http://www.w3.org/2000/svg" width="45.8" height="37.322" viewBox="0 0 45.8 37.322">
  <defs>
    <style>
      .cls-1 {
        fill: #3cb035;
      }

      .cls-2 {
        fill: #fff;
      }
    </style>
  </defs>
  <g id="微信_" data-name="微信 " transform="translate(-96 -172.72)">
    <path id="路径_114" data-name="路径 114" class="cls-1" d="M464.784,414.845c0-6.346-6.345-11.515-13.483-11.515-7.563,0-13.5,5.168-13.5,11.515,0,6.362,5.938,11.513,13.5,11.513a20.506,20.506,0,0,0,4.763-.789l4.359,2.39-1.193-3.972C462.411,421.6,464.784,418.414,464.784,414.845Z" transform="translate(-322.985 -217.915)"/>
    <path id="路径_115" data-name="路径 115" class="cls-2" d="M576.38,522.161a1.58,1.58,0,0,1,0-3.161,1.623,1.623,0,1,1,0,3.164Zm8.739,0a1.58,1.58,0,0,1,0-3.161,1.623,1.623,0,1,1,0,3.164Z" transform="translate(-452.443 -327.218)"/>
    <path id="路径_116" data-name="路径 116" class="cls-1" d="M127.006,184.012a15.273,15.273,0,0,1,1.561.09c-1.4-6.536-8.382-11.382-16.355-11.382-8.905,0-16.212,6.071-16.212,13.787,0,4.453,2.422,8.115,6.482,10.954l-1.616,4.88,5.67-2.853a28.3,28.3,0,0,0,5.673.808,14.741,14.741,0,0,0,1.509-.07,11.852,11.852,0,0,1-.5-3.394c0-7.075,6.087-12.821,13.787-12.821Z" transform="translate(0)"/>
    <path id="路径_117" data-name="路径 117" class="cls-2" d="M264.067,297.921a2.028,2.028,0,0,1,0,4.057,2.063,2.063,0,1,1,0-4.057Zm-11.346,4.055a2.063,2.063,0,1,1,0-4.056,2.028,2.028,0,1,1,0,4.056Z" transform="translate(-145.787 -118.308)"/>
  </g>
</svg>
