<svg xmlns="http://www.w3.org/2000/svg" width="29.664" height="18.874" viewBox="0 0 29.664 18.874">
  <defs>
    <style>
      .cls-1 {
        fill: #848585;
      }
    </style>
  </defs>
  <path id="显示" class="cls-1" d="M10.777,195.669a4.05,4.05,0,1,0,4.05-4.049A4.048,4.048,0,0,0,10.777,195.669Zm18.62-.978s-.017-.385-3.586-3.721c-5.1-4.413-9.651-5.047-13.034-4.628a14.986,14.986,0,0,0-6.132,2.353,28.422,28.422,0,0,0-4.864,4.13,8.329,8.329,0,0,0-1.55,1.765,2.885,2.885,0,0,0,.237,2.647L2.72,199.5s5.068,5.606,11.721,5.606a16.08,16.08,0,0,0,11.144-3.9,24.782,24.782,0,0,0,3.813-4.05A3.091,3.091,0,0,0,29.4,194.691Zm-14.57,7.777a6.8,6.8,0,1,1,6.8-6.8A6.8,6.8,0,0,1,14.827,202.468Z" transform="translate(0.005 -186.233)"/>
</svg>
