<?xml version="1.0" standalone="no"?><!DOCTYPE svg PUBLIC "-//W3C//DTD SVG 1.1//EN" "http://www.w3.org/Graphics/SVG/1.1/DTD/svg11.dtd"><svg t="1588920420829" class="icon" viewBox="0 0 1024 1024" version="1.1" xmlns="http://www.w3.org/2000/svg" p-id="2290" xmlns:xlink="http://www.w3.org/1999/xlink" width="64" height="64"><defs><style type="text/css"></style></defs><path d="M953.181 888.913L746.894 682.625c51.963-65.803 83.254-148.649 83.254-238.799 0-213.023-173.321-386.322-386.322-386.322-213.023 0-386.322 173.299-386.322 386.322 0 213.001 173.299 386.322 386.322 386.322 90.15 0 172.997-31.291 238.799-83.254l206.288 206.288c8.877 8.877 20.506 13.315 32.134 13.315s23.257-4.438 32.134-13.315c17.754-17.754 17.754-46.515 0-64.269zM148.403 443.825c0-162.891 132.532-295.423 295.423-295.423s295.423 132.532 295.423 295.423c0 81.332-33.053 155.085-86.417 208.563-0.08 0.078-0.189 0.1-0.266 0.178s-0.1 0.186-0.178 0.266c-53.478 53.364-127.231 86.417-208.563 86.417-162.89-0.001-295.422-132.533-295.422-295.424z" fill="#848486" p-id="2291"></path></svg>